# WaveFront *.obj file (generated by CINEMA 4D)

mtllib ./Baked_sign2.mtl

v 1.15831196308136 1.63210904598236 1.20507299900055
v 1.15831196308136 -4.77815580368042 1.20507299900055
v 1.15831196308136 1.63210904598236 1.47106003761292
v 1.15831196308136 -4.77815580368042 1.47106003761292
v -2.18891406059265 1.63210904598236 1.20507299900055
v -2.18891406059265 -4.77815580368042 1.20507299900055
v -2.18891406059265 1.63210904598236 1.47106003761292
v -2.18891406059265 -4.77815580368042 1.47106003761292
v 8.82746315002441 5.77623701095581 1.26887285709381
v 8.82746315002441 2.00148892402649 1.26887285709381
v 8.81084060668945 5.77623701095581 1.61021482944489
v 8.81084060668945 2.00148892402649 1.61021482944489
v 0.76869797706604 5.77623701095581 1.19110798835754
v 0.76869797706604 2.00148892402649 1.19110798835754
v 0.7853199839592 5.77623701095581 1.53244996070862
v 0.7853199839592 2.00148892402649 1.53244996070862
v 8.30115699768066 1.42579901218414 1.16581594944
v 8.30115699768066 -1.50113701820374 1.16581594944
v 8.30115699768066 1.42579901218414 1.33282494544983
v 8.30115699768066 -1.50113701820374 1.33282494544983
v 1.5874969959259 1.42579901218414 1.16581594944
v 1.5874969959259 -1.50113701820374 1.16581594944
v 1.5874969959259 1.42579901218414 1.33282494544983
v 1.5874969959259 -1.50113701820374 1.33282494544983
v 1.65667498111725 -7.37353992462158 1.61539602279663
v 1.65667498111725 -3.15929293632507 1.61539602279663
v 1.65667498111725 -7.37353992462158 1.33094096183777
v 1.65667498111725 -3.15929293632507 1.33094096183777
v 9.80089569091797 -7.37353992462158 1.61539602279663
v 9.80089569091797 -3.15929293632507 1.61539602279663
v 9.80089569091797 -7.37353992462158 1.33094096183777
v 9.80089569091797 -3.15929293632507 1.33094096183777
v 0.57326197624207 4.95772409439087 0.21333199739456
v 0.57326197624207 8.75349617004395 0.21333199739456
v 0.57326197624207 4.95772409439087 0.51543998718262
v 0.57326197624207 8.75349617004395 0.51543998718262
v -2.19299602508545 4.95772409439087 0.21333199739456
v -2.19299602508545 8.75349617004395 0.21333199739456
v -2.19299602508545 4.95772409439087 0.51543998718262
v -2.19299602508545 8.75349617004395 0.51543998718262
# 40 vertices

vn 0 1 0
vn 0 0 1
vn -1 0 0
vn 0 -1 0
vn 1 0 0
vn 0 0 -1
vn -0.99882006645203 0 0.04856438562274
vn 0.99882006645203 0 0.04856438562274
# 8 normals

vt 0.12608599662781 0.73309999704361 0
vt 0.12608599662781 0.87857300043106 0
vt 0.13249999284744 0.87857300043106 0
vt 0.13249999284744 0.73309999704361 0
vt 0.40382501482964 0.83882403373718 0
vt 0.40382501482964 0.56022799015045 0
vt 0.32311099767685 0.56022799015045 0
vt 0.32311099767685 0.83882403373718 0
vt 0.19190099835396 0.98681402206421 0
vt 0.19190099835396 0.70821899175644 0
vt 0.18548700213432 0.70821899175644 0
vt 0.18548700213432 0.98681402206421 0
vt 0.11967200040817 0.73309999704361 0
vt 0.11967200040817 0.87857300043106 0
vt 0.19831499457359 0.98681402206421 0
vt 0.19831499457359 0.70821899175644 0
vt 0.4845390021801 0.83882403373718 0
vt 0.4845390021801 0.56022799015045 0
vt 0.17725600302219 0.70894104242325 0
vt 0.17725600302219 0.98833298683166 0
vt 0.18548700213432 0.98905497789383 0
vt 0.41413500905037 0.28083598613739 0
vt 0.32311099767685 0.28083598613739 0
vt 0.41413500905037 0.56022799015045 0
vt 0.08177600055933 0.73309999704361 0
vt 0.08177600055933 0.89715397357941 0
vt 0.09001000225544 0.89715397357941 0
vt 0.09001000225544 0.73309999704361 0
vt 0.32069298624992 0.98802399635315 0
vt 0.32069298624992 0.70863199234009 0
vt 0.31246200203896 0.70791000127792 0
vt 0.31246200203896 0.98874598741531 0
vt 0.09824299812317 0.89715397357941 0
vt 0.09824299812317 0.73309999704361 0
vt 0.41413500905037 0 0
vt 0.32311099767685 0 0
vt 0.52952599525452 0.70821899175644 0
vt 0.52952599525452 1 0
vt 0.53355300426483 1 0
vt 0.53355300426483 0.70821899175644 0
vt 0.221489995718 0.99969202280045 0
vt 0.29207000136375 0.99969100952148 0
vt 0.29206898808479 0.70791000127792 0
vt 0.221489995718 0.70791000127792 0
vt 0.15109699964523 0.73309999704361 0
vt 0.15109699964523 0.86030697822571 0
vt 0.15512399375439 0.86030697822571 0
vt 0.15512399375439 0.73309999704361 0
vt 0.5254989862442 0.70821899175644 0
vt 0.5254989862442 1 0
vt 0.14707000553608 0.73309999704361 0
vt 0.14707000553608 0.86030697822571 0
vt 0.48471400141716 0 0
vt 0.41413500905037 0.29178202152252 0
vt 0.48471400141716 0.29178202152252 0
vt 0.21338599920273 0.70821899175644 0
vt 0.21338599920273 0.89137303829193 0
vt 0.22024500370026 0.89137303829193 0
vt 0.22024500370026 0.70821899175644 0
vt 0.5625 0.70791000127792 0
vt 0.5625 0.35395503044128 0
vt 0.55564099550247 0.35395503044128 0
vt 0.55564099550247 0.70791000127792 0
vt 0.09824299812317 0.91625499725342 0
vt 0.1051020026207 0.91625499725342 0
vt 0.1051020026207 0.73309999704361 0
vt 0.221489995718 0.35395503044128 0
vt 0.32311099767685 0.35395503044128 0
vt 0.221489995718 0 0
vt 0.32311099767685 0.70791000127792 0
vt 0.13978500664234 0.73309999704361 0
vt 0.13978500664234 0.85332399606705 0
vt 0.14707000553608 0.85332399606705 0
vt 0 0.73309999704361 0
vt 0 0.89806699752808 0
vt 0.06670500338078 0.89806699752808 0
vt 0.06670500338078 0.73309999704361 0
vt 0.11238700151443 0.73309999704361 0
vt 0.11238700151443 0.89806699752808 0
vt 0.11967200040817 0.89806699752808 0
vt 0.13249999284744 0.85332399606705 0
vt 0.1051020026207 0.89806699752808 0
vt 0.41413500905037 0.45674908161163 0
vt 0.48083901405334 0.45674908161163 0
vt 0.48083901405334 0.29178202152252 0
vt 0.55564099550247 0 0
vt 0.5625 0 0
# 87 texture coordinates

o Signs
usemtl Material
f 1/4/1 5/3/1 7/2/1 3/1/1
f 4/8/2 3/7/2 7/6/2 8/5/2
f 8/12/3 7/11/3 5/10/3 6/9/3
f 6/14/4 2/13/4 4/1/4 8/2/4
f 2/16/5 1/15/5 3/9/5 4/10/5
f 6/5/6 5/6/6 1/18/6 2/17/6
f 9/11/1 13/21/1 15/20/1 11/19/1
f 12/24/2 11/7/2 15/23/2 16/22/2
f 16/28/7 15/27/7 13/26/7 14/25/7
f 14/32/4 10/31/4 12/30/4 16/29/4
f 10/27/8 9/28/8 11/34/8 12/33/8
f 14/22/6 13/23/6 9/36/6 10/35/6
f 17/40/1 21/39/1 23/38/1 19/37/1
f 20/44/2 19/43/2 23/42/2 24/41/2
f 24/48/3 23/47/3 21/46/3 22/45/3
f 22/50/4 18/49/4 20/37/4 24/38/4
f 18/45/5 17/46/5 19/52/5 20/51/5
f 22/55/6 21/54/6 17/35/6 18/53/6
f 31/59/5 32/58/5 30/57/5 29/56/5
f 27/63/4 31/62/4 29/61/4 25/60/4
f 25/66/3 26/65/3 28/64/3 27/34/3
f 29/69/2 30/36/2 26/68/2 25/67/2
f 27/67/6 28/68/6 32/70/6 31/44/6
f 33/51/1 37/73/1 39/72/1 35/71/1
f 36/77/6 35/76/6 39/75/6 40/74/6
f 40/13/5 39/80/5 37/79/5 38/78/5
f 38/81/4 34/4/4 36/71/4 40/72/4
f 34/78/3 33/79/3 35/82/3 36/66/3
f 38/85/2 37/84/2 33/83/2 34/54/2
f 32/87/1 28/61/1 26/62/1 30/86/1

